<svg xmlns="http://www.w3.org/2000/svg" viewBox="0 0 64 64" fill="none">
  <rect width="64" height="64" rx="18" fill="#111315"/>
  <rect x="6" y="6" width="52" height="52" rx="16" fill="url(#bg)"/>
  <path
    d="M31.953 16.5c3.65 0 7.225 1.18 10.172 3.365 2.946 2.186 5.1 5.252 6.129 8.727 1.028 3.474.873 7.188-.443 10.567-1.315 3.379-3.715 6.237-6.829 8.136-3.114 1.899-6.772 2.733-10.399 2.37-3.627-.362-7.016-1.9-9.639-4.374-2.622-2.473-4.333-5.741-4.865-9.29-.531-3.549.148-7.173 1.93-10.286l8.663 4.99a7.838 7.838 0 0 0-.777 4.058 7.812 7.812 0 0 0 2.075 4.444 7.824 7.824 0 0 0 4.294 2.294 7.82 7.82 0 0 0 4.832-.59 7.809 7.809 0 0 0 3.332-3.548 7.813 7.813 0 0 0 .345-4.857 7.812 7.812 0 0 0-2.843-3.953 7.825 7.825 0 0 0-4.58-1.48V16.5Z"
    fill="white"
  />
  <path
    d="M28.5 15h7v19.72a4.75 4.75 0 0 1-7 4.122l-12.672-7.317a4.75 4.75 0 0 1 0-8.23L28.5 15Z"
    fill="#B9E7FF"
  />
  <defs>
    <linearGradient id="bg" x1="8" y1="8" x2="56" y2="56" gradientUnits="userSpaceOnUse">
      <stop stop-color="#2081E2"/>
      <stop offset="1" stop-color="#145DA0"/>
    </linearGradient>
  </defs>
</svg>
